<svg width="28" height="26" viewBox="0 0 28 26" fill="none" xmlns="http://www.w3.org/2000/svg">
<g clip-path="url(#clip0_13_87)">
<path fill-rule="evenodd" clip-rule="evenodd" d="M13.1284 12.7725L13.3921 12.8267L17.7274 13.832C19.0936 14.1494 19.7808 15.4874 19.3491 16.692L19.7224 16.4537L20.4761 15.9532C20.8553 15.704 21.2426 15.4679 21.6451 15.2815C23.4371 14.4495 25.5348 15.5968 25.6608 17.4168L25.6666 17.5901V17.6497C25.6666 18.4048 25.3166 19.1198 24.7099 19.6149L24.5384 19.7449L20.9568 22.2387C20.6079 22.4814 20.2148 22.6612 19.7971 22.7695L19.5428 22.8259L15.7978 23.5214C14.6346 23.737 13.4284 23.6184 12.3398 23.1812L12.0458 23.0544L9.30409 21.7815C9.18311 21.7249 9.05244 21.6882 8.91792 21.6732L8.78259 21.6667H7.85392C7.66587 21.9692 7.40183 22.225 7.08432 22.4123C6.76681 22.5996 6.40524 22.7129 6.03042 22.7424L5.83325 22.75H4.66659C4.07791 22.7502 3.51092 22.5437 3.07928 22.1721C2.64763 21.8004 2.38324 21.2909 2.33909 20.7459L2.33325 20.5834V16.25C2.33336 15.7036 2.55582 15.1774 2.95606 14.7768C3.35631 14.3762 3.90477 14.1308 4.49159 14.0899L4.66659 14.0834H5.83325C6.39792 14.0834 6.91592 14.2697 7.31959 14.5806L7.46542 14.7019L9.78709 13.3554C10.7036 12.8233 11.7906 12.6031 12.8624 12.7324L13.1284 12.7725ZM11.0238 15.1927L8.16659 16.8502V19.5H8.78259C9.32611 19.5001 9.86216 19.6176 10.3483 19.8434L13.0899 21.1164C13.7861 21.4394 14.5784 21.5378 15.3416 21.3959L19.0854 20.7004C19.2563 20.6689 19.4173 20.6023 19.5568 20.5054L23.1384 18.0104C23.2878 17.9064 23.3333 17.7537 23.3333 17.589C23.3333 17.5224 23.316 17.4568 23.2829 17.3978C23.2498 17.3387 23.2019 17.288 23.1431 17.2498C23.0844 17.2116 23.0166 17.1872 22.9455 17.1785C22.8744 17.1699 22.8021 17.1773 22.7348 17.2001L19.9021 18.9551C19.3267 19.3109 18.6508 19.5005 17.9596 19.5H13.9999V17.3334H15.8188C16.0635 17.3332 16.302 17.2615 16.5005 17.1286C16.699 16.9956 16.8474 16.808 16.9248 16.5924L17.1616 15.9337L12.8263 14.9284C12.5221 14.8577 12.2057 14.8447 11.896 14.8901C11.5863 14.9355 11.2897 15.0384 11.0238 15.1927ZM5.83325 16.25H4.66659V20.5834H5.83325V16.25ZM18.6666 3.75919C19.8683 3.06152 21.2473 3.11677 22.3603 3.71911C23.6576 4.42111 24.5373 5.82294 24.4988 7.42627C24.4509 9.41419 22.8538 11.0489 20.4878 12.4096L20.0234 12.6685C19.6058 12.8982 19.1601 13.1214 18.6666 13.1214C18.1731 13.1214 17.7274 12.8982 17.3098 12.6685L16.8454 12.4085C14.4783 11.0479 12.8823 9.41419 12.8333 7.42519C12.7948 5.82186 13.6744 4.42002 14.9718 3.71802C16.0848 3.11569 17.4626 3.06044 18.6654 3.75811L18.6666 3.75919ZM21.1854 5.59111C20.7433 5.35277 20.2171 5.32461 19.6944 5.73844L19.4541 5.94427C19.2303 6.10968 18.9526 6.19973 18.6666 6.19973C18.3805 6.19973 18.1029 6.10968 17.8791 5.94427L17.6388 5.73844C17.1149 5.32461 16.5888 5.35169 16.1478 5.59111C15.6099 5.88252 15.1468 6.53361 15.1678 7.37861C15.1876 8.22144 15.8888 9.30694 18.0471 10.5517L18.3248 10.7077L18.6666 10.8929L19.0084 10.7088C21.3849 9.39577 22.1444 8.25502 22.1666 7.37536C22.1876 6.53144 21.7244 5.88036 21.1866 5.58894L21.1854 5.59111Z" fill="black"/>
</g>
<defs>
<clipPath id="clip0_13_87">
<rect width="28" height="26" fill="white"/>
</clipPath>
</defs>
</svg>
