<svg width="28" height="26" viewBox="0 0 28 26" fill="none" xmlns="http://www.w3.org/2000/svg">
<g clip-path="url(#clip0_11_28)">
<path fill-rule="evenodd" clip-rule="evenodd" d="M13.1285 12.7725L13.3922 12.8267L17.7275 13.832C19.0937 14.1494 19.7808 15.4874 19.3492 16.692L19.7225 16.4537L20.4762 15.9532C20.8553 15.704 21.2427 15.4679 21.6452 15.2815C23.4372 14.4495 25.5348 15.5968 25.6608 17.4168L25.6667 17.5901V17.6497C25.6667 18.4048 25.3167 19.1198 24.71 19.6149L24.5385 19.7449L20.9568 22.2387C20.608 22.4814 20.2148 22.6612 19.7972 22.7695L19.5428 22.8259L15.7978 23.5214C14.6347 23.737 13.4285 23.6184 12.3398 23.1812L12.0458 23.0544L9.30418 21.7815C9.18321 21.7249 9.05253 21.6882 8.91801 21.6732L8.78268 21.6667H7.85401C7.66596 21.9692 7.40192 22.225 7.08441 22.4123C6.7669 22.5996 6.40533 22.7129 6.03051 22.7424L5.83334 22.75H4.66668C4.078 22.7502 3.51102 22.5437 3.07937 22.1721C2.64773 21.8004 2.38333 21.2909 2.33918 20.7459L2.33334 20.5834V16.25C2.33345 15.7036 2.55591 15.1774 2.95615 14.7768C3.3564 14.3762 3.90486 14.1308 4.49168 14.0899L4.66668 14.0834H5.83334C6.39801 14.0834 6.91601 14.2697 7.31968 14.5806L7.46551 14.7019L9.78718 13.3554C10.7037 12.8233 11.7906 12.6031 12.8625 12.7324L13.1285 12.7725ZM11.0238 15.1927L8.16668 16.8502V19.5H8.78268C9.3262 19.5001 9.86225 19.6176 10.3483 19.8434L13.09 21.1164C13.7862 21.4394 14.5785 21.5378 15.3417 21.3959L19.0855 20.7004C19.2563 20.6689 19.4174 20.6023 19.5568 20.5054L23.1385 18.0104C23.2878 17.9064 23.3333 17.7537 23.3333 17.589C23.3334 17.5224 23.3161 17.4568 23.283 17.3978C23.2499 17.3387 23.2019 17.288 23.1432 17.2498C23.0845 17.2116 23.0167 17.1872 22.9456 17.1785C22.8745 17.1699 22.8022 17.1773 22.7348 17.2001L19.9022 18.9551C19.3268 19.3109 18.6509 19.5005 17.9597 19.5H14V17.3334H15.8188C16.0636 17.3332 16.3021 17.2615 16.5006 17.1286C16.6991 16.9956 16.8475 16.808 16.9248 16.5924L17.1617 15.9337L12.8263 14.9284C12.5222 14.8577 12.2058 14.8447 11.8961 14.8901C11.5864 14.9355 11.2898 15.0384 11.0238 15.1927ZM5.83334 16.25H4.66668V20.5834H5.83334V16.25ZM18.6667 3.75919C19.8683 3.06152 21.2473 3.11677 22.3603 3.71911C23.6577 4.42111 24.5373 5.82294 24.4988 7.42627C24.451 9.41419 22.8538 11.0489 20.4878 12.4096L20.0235 12.6685C19.6058 12.8982 19.1602 13.1214 18.6667 13.1214C18.1732 13.1214 17.7275 12.8982 17.3098 12.6685L16.8455 12.4085C14.4783 11.0479 12.8823 9.41419 12.8333 7.42519C12.7948 5.82186 13.6745 4.42002 14.9718 3.71802C16.0848 3.11569 17.4627 3.06044 18.6655 3.75811L18.6667 3.75919ZM21.1855 5.59111C20.7433 5.35277 20.2172 5.32461 19.6945 5.73844L19.4542 5.94427C19.2303 6.10968 18.9527 6.19973 18.6667 6.19973C18.3806 6.19973 18.103 6.10968 17.8792 5.94427L17.6388 5.73844C17.115 5.32461 16.5888 5.35169 16.1478 5.59111C15.61 5.88252 15.1468 6.53361 15.1678 7.37861C15.1877 8.22144 15.8888 9.30694 18.0472 10.5517L18.3248 10.7077L18.6667 10.8929L19.0085 10.7088C21.385 9.39577 22.1445 8.25502 22.1667 7.37536C22.1877 6.53144 21.7245 5.88036 21.1867 5.58894L21.1855 5.59111Z" fill="black"/>
</g>
<defs>
<clipPath id="clip0_11_28">
<rect width="28" height="26" fill="white"/>
</clipPath>
</defs>
</svg>
